<?xml version="1.0" encoding="UTF-8"?>
<svg version="1.1" xmlns="http://www.w3.org/2000/svg" width="389" height="277">
<path d="M0 0 C128.37 0 256.74 0 389 0 C389 91.41 389 182.82 389 277 C260.63 277 132.26 277 0 277 C0 185.59 0 94.18 0 0 Z " fill="#FDFDFD" transform="translate(0,0)"/>
<path d="M0 0 C67.98 0 135.96 0 206 0 C206 0.33 206 0.66 206 1 C199.07 1 192.14 1 185 1 C185.00888245 3.61598114 185.01776489 6.23196228 185.0269165 8.92721558 C185.10881215 33.61527575 185.16825589 58.30331794 185.20724869 82.99148369 C185.22782884 95.68301652 185.25586217 108.37444935 185.30175781 121.06591797 C185.34176513 132.13441957 185.36746581 143.2028487 185.37635398 154.2714206 C185.38154526 160.12614617 185.39365104 165.98066451 185.42292023 171.83532333 C185.45030929 177.35927707 185.45839803 182.88294053 185.45243073 188.40695572 C185.45352055 190.42155796 185.4613331 192.43617112 185.4768219 194.45071411 C185.62907652 215.29701142 183.34653178 234.09038114 168.31640625 249.7890625 C149.94149886 267.32733836 120.32656712 269.53681942 96.2578125 269.21484375 C73.48772767 268.55143737 51.14762284 259.83495705 35.3125 243.3125 C25.00274309 231.43738733 20.87785877 216.42132896 20.87301636 200.90864563 C20.87145637 200.22977757 20.86989638 199.55090951 20.86828911 198.8514697 C20.8643257 196.59407243 20.86745103 194.33674338 20.87060547 192.0793457 C20.86924899 190.4520158 20.86746767 188.8246862 20.86529541 187.19735718 C20.86073992 182.78019846 20.8625057 178.36306314 20.8656745 173.94590402 C20.86822027 169.28491421 20.86585326 164.6239263 20.86428833 159.9629364 C20.86246785 152.10541428 20.8648643 144.24790155 20.86962891 136.39038086 C20.87501636 127.40402625 20.87334914 118.41769453 20.8678025 109.43134052 C20.86320138 101.65660134 20.86265597 93.8818689 20.86524117 86.1071288 C20.86677326 81.49169143 20.86708607 76.87626464 20.86370468 72.26082802 C20.84860712 48.48925772 21.21081312 24.75880022 22 1 C14.74 1 7.48 1 0 1 C0 0.67 0 0.34 0 0 Z " fill="#FDFDFD" transform="translate(2,0)"/>
<path d="M0 0 C6.93 0 13.86 0 21 0 C20.99333817 2.54747452 20.98667633 5.09494904 20.97981262 7.71961975 C20.91842551 31.7464002 20.87382406 55.77317027 20.84456348 79.80001163 C20.82911989 92.15194363 20.80807843 104.50381793 20.77368164 116.85571289 C20.7437024 127.62643694 20.72440679 138.39711919 20.71773452 149.16788381 C20.71383668 154.86653822 20.70472876 160.56507309 20.68280983 166.26368904 C20.66230984 171.63739929 20.65619331 177.01094178 20.66067696 182.38468742 C20.65985776 184.34732859 20.65397322 186.30997589 20.64238358 188.27258301 C20.52068927 209.96093512 23.26499482 228.54994032 38.80078125 244.89453125 C56.52140572 261.70445982 82.18028444 266.76588318 105.8046875 266.2265625 C129.08086558 265.37404987 154.02469159 260.64773695 170.8125 243.3125 C183.26955803 227.957757 183.44895177 208.65240437 183.43237305 189.92797852 C183.44140777 187.84696884 183.45173914 185.76596446 183.46325684 183.68496704 C183.49065207 178.08064776 183.50008744 172.47642994 183.50611091 166.87205243 C183.51554038 160.99839649 183.54174725 155.12481498 183.56611633 149.25120544 C183.60965975 138.14881412 183.63828124 127.04643735 183.66143972 115.94398683 C183.68855679 103.2957107 183.73246414 90.6475099 183.77772844 77.99928772 C183.87040049 51.99956448 183.94156532 25.99982081 184 0 C190.93 0 197.86 0 205 0 C205.27157521 29.73307168 205.48627501 59.4660059 205.61278395 89.20004956 C205.62779149 92.7145859 205.64332345 96.22911974 205.65917969 99.74365234 C205.66232741 100.44329909 205.66547514 101.14294584 205.66871825 101.863794 C205.72086002 113.17573225 205.8154319 124.48693478 205.92583355 135.79843733 C206.03826247 147.4149925 206.10385143 159.03111996 206.12906194 170.6481936 C206.14468649 177.16959499 206.18131734 183.68933076 206.26876068 190.21019745 C206.35047079 196.35353876 206.37528895 202.49453548 206.35729218 208.63836861 C206.36058227 210.88781307 206.3843056 213.13733928 206.4304657 215.38631248 C206.79620411 234.13159898 206.79620411 234.13159898 200.9474957 240.60140729 C198.42843535 243.00160407 195.84981903 244.98684824 193 247 C192.10644814 247.64604573 192.10644814 247.64604573 191.19484472 248.30514288 C175.63291002 259.51657966 158.01904564 264.88601579 139.4375 268.6875 C137.8764856 269.00956421 137.8764856 269.00956421 136.28393555 269.33813477 C102.01014194 276.09357263 61.02364939 274.67670441 31 255 C14.91517775 243.8400125 5.49158885 228.02855547 1 209 C0.11438408 203.7709604 -0.14034771 198.7706084 -0.12025452 193.48951721 C-0.12110894 192.65865866 -0.12196337 191.82780011 -0.12284368 190.97176403 C-0.12448409 188.20193823 -0.11900077 185.43217369 -0.11352539 182.66235352 C-0.11324318 180.67119854 -0.11340191 178.68004346 -0.1139679 176.68888855 C-0.11425456 171.29277181 -0.108379 165.89667734 -0.10139394 160.50056577 C-0.09513859 154.85779512 -0.09455487 149.21502395 -0.09336853 143.57225037 C-0.09026165 132.89102283 -0.08205693 122.20980554 -0.07201904 111.52858251 C-0.06083794 99.36662151 -0.05534242 87.20466002 -0.05032361 75.04269516 C-0.03987379 50.02845757 -0.02208512 25.01422979 0 0 Z " fill="#010101" transform="translate(3,2)"/>
<path d="M0 0 C2.51625 1.340625 5.0325 2.68125 7.625 4.0625 C28.88914198 14.51491131 54.23598178 17.07251496 77.3671875 21.38671875 C79.57260307 21.79852718 81.77797955 22.21054194 83.98327637 22.62298584 C85.84061189 22.97020337 87.69812954 23.31644628 89.55566406 23.66259766 C103.43635552 26.29353689 116.13361058 30.12780426 129 36 C130.07765625 36.48210937 131.1553125 36.96421875 132.265625 37.4609375 C146.70869745 44.59994188 156.40906856 56.72721637 162.2734375 71.515625 C167.26481346 88.58291055 164.5730394 107.80804648 156.27734375 123.1875 C153.23574904 128.49227181 149.40876157 132.7877073 145 137 C144.41089844 137.6084375 143.82179688 138.216875 143.21484375 138.84375 C122.98770915 158.40405599 91.25100499 163.56598332 64.28295898 163.35083008 C41.96585223 162.84406763 20.35169764 159.42283601 0 150 C0 144.06 0 138.12 0 132 C0.845625 132.804375 1.69125 133.60875 2.5625 134.4375 C23.78219085 152.49771978 50.77225243 158.41701847 78 157 C97.8049669 155.37445355 119.04178379 148.89480647 133 134 C144.01681528 120.97803214 147.34729889 105.64553906 146 89 C144.09837329 78.2890303 138.97286017 68.31999362 130.3125 61.49609375 C109.44099394 47.99307547 84.46353107 43.58887149 60.1875 40.5625 C39.80769952 37.98996474 18.52172168 34.26086084 0 25 C0 16.75 0 8.5 0 0 Z " fill="#040404" transform="translate(224,94)"/>
<path d="M0 0 C5.14911589 4.69003809 9.89848239 11.02453481 10.390625 18.11328125 C10.55050808 29.66483396 10.55050808 29.66483396 7.1875 34.1875 C2.87171053 38.1875 2.87171053 38.1875 0.1875 38.1875 C-0.0084375 37.38828125 -0.204375 36.5890625 -0.40625 35.765625 C-4.81832069 19.56267575 -14.55582785 7.77195813 -28.8125 -0.8125 C-37.79168995 -5.54625719 -46.93818096 -9.34099191 -56.8125 -11.8125 C-57.49787842 -11.98765137 -58.18325684 -12.16280273 -58.8894043 -12.34326172 C-66.54041254 -14.10467907 -74.17520181 -14.2957727 -82 -14.3125 C-83.04989609 -14.31601974 -83.04989609 -14.31601974 -84.1210022 -14.3196106 C-108.12626377 -14.28649518 -128.59466075 -8.03033925 -145.8125 9.1875 C-147.0093266 -1.23486494 -147.0093266 -1.23486494 -144.5234375 -4.51171875 C-142.35707503 -5.89911258 -140.19802013 -6.84492178 -137.8125 -7.8125 C-136.79414063 -8.30105469 -135.77578125 -8.78960937 -134.7265625 -9.29296875 C-96.29175359 -27.10314908 -34.30812789 -26.85625495 0 0 Z " fill="#080808" transform="translate(369.8125,26.8125)"/>
</svg>
